<svg xmlns="http://www.w3.org/2000/svg" preserveAspectRatio="xMidYMid meet" version="1.0" viewBox="4.25 4.4 63.48 65.23">

 <g>
  <title>Layer 1</title>
  <g id="svg_1" fill="#000000" transform="translate(0, 75) scale(0.1, -0.1)" style="--darkreader-inline-fill: #000000;" data-darkreader-inline-fill="">
   <path fill="#eff7f7" id="svg_2" d="m287,700c-83,-21 -172,-91 -210,-166c-63,-125 -37,-291 59,-388c123,-123 325,-123 448,0c99,99 122,264 55,394c-25,50 -96,116 -151,140c-54,24 -148,33 -201,20zm198,-51c92,-46 154,-143 162,-253c9,-115 -58,-232 -164,-286c-70,-36 -178,-35 -249,2c-103,54 -159,148 -159,268c0,141 78,246 215,291c44,15 144,3 195,-22z" style="--darkreader-inline-fill: #162c2c;" data-darkreader-inline-fill=""/>
   <path fill="#eff7f7" id="svg_3" d="m331,623c-1,-7 -12,-13 -26,-13c-30,0 -85,-26 -85,-40c0,-6 -12,-10 -27,-10c-21,0 -35,-10 -56,-40c-62,-88 -59,-230 8,-297c43,-43 82,-44 128,-3c46,40 88,40 134,0c42,-37 81,-39 122,-5c59,51 78,181 37,265c-42,86 -33,80 -118,80c-77,0 -78,0 -78,25c0,15 -6,25 -14,25c-8,0 -17,6 -19,13c-4,10 -6,10 -6,0zm-31,-53c0,-5 -12,-10 -27,-10c-22,0 -25,2 -13,10c20,13 40,13 40,0zm-30,-105c0,-18 -5,-25 -20,-25c-15,0 -20,7 -20,25c0,18 5,25 20,25c15,0 20,-7 20,-25zm185,-4c3,-5 1,-12 -5,-16c-5,-3 -10,1 -10,9c0,18 6,21 15,7zm6,-46c10,4 14,-2 14,-18c0,-18 -4,-23 -17,-19c-10,2 -18,9 -18,15c0,6 -8,20 -17,31c-18,21 -18,21 3,3c12,-9 27,-15 35,-12zm-241,-10c0,-8 -9,-15 -20,-15c-11,0 -20,7 -20,15c0,8 9,15 20,15c11,0 20,-7 20,-15zm50,0c0,-8 -9,-15 -20,-15c-11,0 -20,7 -20,15c0,8 9,15 20,15c11,0 20,-7 20,-15zm40,0c0,-8 -7,-15 -15,-15c-8,0 -15,7 -15,15c0,8 7,15 15,15c8,0 15,-7 15,-15zm204,-16c-3,-5 -10,-7 -15,-3c-5,3 -7,10 -3,15c3,5 10,7 15,3c5,-3 7,-10 3,-15zm-244,-49c0,-13 -7,-20 -20,-20c-13,0 -20,7 -20,20c0,13 7,20 20,20c13,0 20,-7 20,-20zm190,-1c0,-5 -4,-9 -10,-9c-5,0 -10,7 -10,16c0,8 5,12 10,9c6,-3 10,-10 10,-16z" style="--darkreader-inline-fill: #162c2c;" data-darkreader-inline-fill=""/>
   <path fill="#eff7f7" id="svg_4" d="m570,518c0,-2 7,-25 15,-52c21,-70 18,-132 -10,-201c-30,-71 -29,-65 -9,-65c22,0 54,80 60,152c6,76 -14,161 -39,166c-9,2 -17,2 -17,0z" style="--darkreader-inline-fill: #162c2c;" data-darkreader-inline-fill=""/>
  </g>
 </g>
</svg>